# xmcd
#
# Track frame offsets: 
#        150
#        16735
#        34390
#        50125
#        69800
#        82392
#        100875
#        117279
#        136320
#        152580
#        168435
#        182760
#        193430
#        205270
#        219845
#        234855
#        252200
#        268050
#
# Disc length: 3793 seconds
#
# Revision: 2
# Processed by: cddbd v1.5.1PL0 Copyright (c) Steve Scherf et al.
# Submitted via: ExactAudioCopy v0.95a4
#
DISCID=000ecf12
DTITLE=Various Artist - R&B Christmas
DYEAR=1997
DGENRE=X-mas
TTITLE0=Soul Made Featuring Lynn and Burney - Last Christmas
TTITLE1=Pulse In Corperate - White Christmas
TTITLE2=Soul Made - First Noel
TTITLE3=Peter Sanders - Thank God It's Christmas
TTITLE4=Earl Ray Micheals - Driving Home For Christmas
TTITLE5=Anna Gram and Mack Full - Do You Hear What I Hear
TTITLE6=Twinkle B. - When A Child Is Born
TTITLE7=Duke Of Music - The Power Of Love
TTITLE8=Joshua - Lonely This Christmas
TTITLE9=Jay 'S' Mitchel - I Still Believe In Santa Claus
TTITLE10=Cindy R. Alla - Mary's Boy Child
TTITLE11=Deli Kate - Silent Night
TTITLE12=Mary White - Please Come Home For Christmas
TTITLE13=Richard Flint - Jingle Bells
TTITLE14=Natha Lee - The Christmas Song (Chestnuts)
TTITLE15=Leroy King - My Gift To You
TTITLE16=Eva Stanley - Have Yourself A Merry Little Christmas
TTITLE17=Julian Mc Neal - Happy Christmas (War Is Over)
EXTD=
EXTT0=Soul Made Featuring Lynn and Burney\n
EXTT1=Pulse In Corporate\n
EXTT2=Soul Made\n
EXTT3=Peter Sanders\n
EXTT4=Earl Ray Michaels\n
EXTT5=Anna Gram and Mack Full\n
EXTT6=Twinkle B.\n
EXTT7=Duke of music\n
EXTT8=Joshua\n
EXTT9=Jay 'S' Michael\n
EXTT10=Cindy R. Alla\n
EXTT11=Deli Kate\n
EXTT12=Mary White\n
EXTT13=Richard Flint\n
EXTT14=Natha Lee\n
EXTT15=Leroy King\n
EXTT16=Eva Stanley\n
EXTT17=Julian McNeal\n
PLAYORDER=
